<?xml version="1.0" encoding="windows-1252" standalone="no"?>
<svg xmlns="http://www.w3.org/2000/svg" xmlns:xlink="http://www.w3.org/1999/xlink" contentStyleType="text/css" height="664px" preserveAspectRatio="none" style="width:559px;height:664px;background:#FFFFFF;" version="1.1" viewBox="0 0 559 664" width="559px" zoomAndPan="magnify"><script xmlns=""/><div xmlns="" id="__jumpCutterBridgeElement"/><defs/><g><!--cluster dc--><g id="cluster_dc"><polygon fill="none" points="16,16,26,6,437,6,437,637,427,647,16,647,16,16" style="stroke:#181818;stroke-width:1.0;"/><line style="stroke:#181818;stroke-width:1.0;" x1="427" x2="437" y1="16" y2="6"/><line style="stroke:#181818;stroke-width:1.0;" x1="16" x2="427" y1="16" y2="16"/><line style="stroke:#181818;stroke-width:1.0;" x1="427" x2="427" y1="16" y2="647"/><text fill="#000000" font-family="sans-serif" font-size="14" font-weight="bold" lengthAdjust="spacing" textLength="133" x="156" y="31.9951">Docker-compose</text></g><!--cluster psql_node--><g id="cluster_psql_node"><polygon fill="none" points="248,532,258,522,405,522,405,613,395,623,248,623,248,532" style="stroke:#181818;stroke-width:1.0;"/><line style="stroke:#181818;stroke-width:1.0;" x1="395" x2="405" y1="532" y2="522"/><line style="stroke:#181818;stroke-width:1.0;" x1="248" x2="395" y1="532" y2="532"/><line style="stroke:#181818;stroke-width:1.0;" x1="395" x2="395" y1="532" y2="623"/><text fill="#000000" font-family="sans-serif" font-size="14" font-weight="bold" lengthAdjust="spacing" textLength="81" x="282" y="547.9951">Postgress</text></g><!--cluster gogs_node--><g id="cluster_gogs_node"><polygon fill="none" points="277,377,287,367,394,367,394,449,384,459,277,459,277,377" style="stroke:#181818;stroke-width:1.0;"/><line style="stroke:#181818;stroke-width:1.0;" x1="384" x2="394" y1="377" y2="367"/><line style="stroke:#181818;stroke-width:1.0;" x1="277" x2="384" y1="377" y2="377"/><line style="stroke:#181818;stroke-width:1.0;" x1="384" x2="384" y1="377" y2="459"/><text fill="#000000" font-family="sans-serif" font-size="14" font-weight="bold" lengthAdjust="spacing" textLength="41" x="311" y="392.9951">Gogs</text></g><!--cluster jenkins_node--><g id="cluster_jenkins_node"><polygon fill="none" points="195,222,205,212,328,212,328,294,318,304,195,304,195,222" style="stroke:#181818;stroke-width:1.0;"/><line style="stroke:#181818;stroke-width:1.0;" x1="318" x2="328" y1="222" y2="212"/><line style="stroke:#181818;stroke-width:1.0;" x1="195" x2="318" y1="222" y2="222"/><line style="stroke:#181818;stroke-width:1.0;" x1="318" x2="318" y1="222" y2="304"/><text fill="#000000" font-family="sans-serif" font-size="14" font-weight="bold" lengthAdjust="spacing" textLength="57" x="229" y="237.9951">Jenkins</text></g><!--cluster nginx_node--><g id="cluster_nginx_node"><polygon fill="none" points="284,64,294,54,410,54,410,136,400,146,284,146,284,64" style="stroke:#181818;stroke-width:1.0;"/><line style="stroke:#181818;stroke-width:1.0;" x1="400" x2="410" y1="64" y2="54"/><line style="stroke:#181818;stroke-width:1.0;" x1="284" x2="400" y1="64" y2="64"/><line style="stroke:#181818;stroke-width:1.0;" x1="400" x2="400" y1="64" y2="146"/><text fill="#000000" font-family="sans-serif" font-size="14" font-weight="bold" lengthAdjust="spacing" textLength="50" x="318" y="79.9951">NGINX</text></g><!--cluster debian_node--><g id="cluster_debian_node"><polygon fill="none" points="40,222,50,212,171,212,171,294,161,304,40,304,40,222" style="stroke:#181818;stroke-width:1.0;"/><line style="stroke:#181818;stroke-width:1.0;" x1="161" x2="171" y1="222" y2="212"/><line style="stroke:#181818;stroke-width:1.0;" x1="40" x2="161" y1="222" y2="222"/><line style="stroke:#181818;stroke-width:1.0;" x1="161" x2="161" y1="222" y2="304"/><text fill="#000000" font-family="sans-serif" font-size="14" font-weight="bold" lengthAdjust="spacing" textLength="55" x="74" y="237.9951">Debian</text></g><!--entity pc--><g id="elem_pc"><polygon fill="#F1F1F1" points="459.5,99,469.5,89,542.5,89,542.5,125.2969,532.5,135.2969,459.5,135.2969,459.5,99" style="stroke:#181818;stroke-width:0.5;"/><line style="stroke:#181818;stroke-width:0.5;" x1="532.5" x2="542.5" y1="99" y2="89"/><line style="stroke:#181818;stroke-width:0.5;" x1="459.5" x2="532.5" y1="99" y2="99"/><line style="stroke:#181818;stroke-width:0.5;" x1="532.5" x2="532.5" y1="99" y2="135.2969"/><text fill="#000000" font-family="sans-serif" font-size="14" lengthAdjust="spacing" textLength="43" x="474.5" y="121.9951">Client</text></g><!--entity psql--><g id="elem_psql"><path d="M289.5,572 C289.5,562 335,562 335,562 C335,562 380.5,562 380.5,572 L380.5,597.2969 C380.5,607.2969 335,607.2969 335,607.2969 C335,607.2969 289.5,607.2969 289.5,597.2969 L289.5,572 " fill="#F1F1F1" style="stroke:#181818;stroke-width:0.5;"/><path d="M289.5,572 C289.5,582 335,582 335,582 C335,582 380.5,582 380.5,572 " fill="none" style="stroke:#181818;stroke-width:0.5;"/><text fill="#000000" font-family="sans-serif" font-size="14" lengthAdjust="spacing" textLength="71" x="299.5" y="598.9951">postgress</text></g><!--entity gogs--><g id="elem_gogs"><rect fill="#F1F1F1" height="36.2969" rx="2.5" ry="2.5" style="stroke:#181818;stroke-width:0.5;" width="54" x="308" y="407"/><text fill="#000000" font-family="sans-serif" font-size="14" lengthAdjust="spacing" textLength="34" x="318" y="429.9951">gogs</text></g><!--entity jenkins--><g id="elem_jenkins"><rect fill="#F1F1F1" height="36.2969" rx="2.5" ry="2.5" style="stroke:#181818;stroke-width:0.5;" width="71" x="227.5" y="252"/><text fill="#000000" font-family="sans-serif" font-size="14" lengthAdjust="spacing" textLength="51" x="237.5" y="274.9951">jenkins</text></g><!--entity nginx--><g id="elem_nginx"><rect fill="#F1F1F1" height="36.2969" rx="2.5" ry="2.5" style="stroke:#181818;stroke-width:0.5;" width="59" x="330.5" y="94"/><text fill="#000000" font-family="sans-serif" font-size="14" lengthAdjust="spacing" textLength="39" x="340.5" y="116.9951">nginx</text></g><!--entity ssh--><g id="elem_ssh"><rect fill="#F1F1F1" height="36.2969" rx="2.5" ry="2.5" style="stroke:#181818;stroke-width:0.5;" width="52" x="103" y="252"/><text fill="#000000" font-family="sans-serif" font-size="14" lengthAdjust="spacing" textLength="32" x="113" y="274.9951">sshd</text></g><!--link gogs to psql--><g id="link_gogs_psql"><path d="M335,443.155 C335,472.016 335,530.224 335,561.852 " fill="none" id="gogs-psql" style="stroke:#181818;stroke-width:1.0;"/><text fill="#000000" font-family="sans-serif" font-size="13" lengthAdjust="spacing" textLength="26" x="343" y="495.0669">psql</text><path d="M342.0711,494.3948 A10,10 0 0 0 327.9289 494.3948" fill="none" style="stroke:#181818;stroke-width:1.5;"/><ellipse cx="335" cy="501.4659" fill="#FFFFFF" rx="6" ry="6" style="stroke:#181818;stroke-width:1.5;"/></g><!--link jenkins to gogs--><g id="link_jenkins_gogs"><path d="M254.663,288.313 C247.847,305.059 240.72,330.797 250,351 C261.855,376.808 287.834,396.922 307.972,409.443 " fill="none" id="jenkins-gogs" style="stroke:#181818;stroke-width:1.0;"/><text fill="#000000" font-family="sans-serif" font-size="13" lengthAdjust="spacing" textLength="26" x="258" y="340.0669">http</text><path d="M253.4741,341.6229 A10,10 0 0 0 240.6229 347.5259" fill="none" style="stroke:#181818;stroke-width:1.5;"/><ellipse cx="250" cy="351" fill="#FFFFFF" rx="6" ry="6" style="stroke:#181818;stroke-width:1.5;"/></g><!--link jenkins to gogs--><g id="link_jenkins_gogs"><path d="M275.949,288.079 C282.506,297.227 290.269,308.877 296,320 C311.102,349.313 323.43,385.869 329.951,406.912 " fill="none" id="jenkins-gogs-1" style="stroke:#181818;stroke-width:1.0;"/><text fill="#000000" font-family="sans-serif" font-size="13" lengthAdjust="spacing" textLength="22" x="317" y="340.0669">ssh</text><path d="M320.3328,357.4542 A10,10 0 0 0 307.0903 362.4178" fill="none" style="stroke:#181818;stroke-width:1.5;"/><ellipse cx="316.1934" cy="366.5572" fill="#FFFFFF" rx="6" ry="6" style="stroke:#181818;stroke-width:1.5;"/></g><!--link jenkins to ssh--><g id="link_jenkins_ssh"><path d="M227.279,270 C204.585,270 185.719,270 165.155,270 " fill="none" id="jenkins-to-ssh" style="stroke:#181818;stroke-width:1.0;"/><ellipse cx="155.155" cy="270" fill="#FFFFFF" rx="6" ry="6" style="stroke:#181818;stroke-width:1.5;"/><path d="M162.2261,277.0711 A10,10 0 0 0 162.2261 262.9289" fill="#FFFFFF" style="stroke:#181818;stroke-width:1.5;"/><text fill="#000000" font-family="sans-serif" font-size="13" lengthAdjust="spacing" textLength="22" x="180.25" y="263.0669">ssh</text></g><!--link nginx to jenkins--><g id="link_nginx_jenkins"><path d="M349.249,130.291 C330.603,160.277 292.478,221.592 273.799,251.632 " fill="none" id="nginx-jenkins" style="stroke:#181818;stroke-width:1.0;"/><text fill="#000000" font-family="sans-serif" font-size="13" lengthAdjust="spacing" textLength="26" x="333" y="185.0669">http</text><path d="M321.2751,188.6702 A10,10 0 0 0 309.2653 181.2026" fill="none" style="stroke:#181818;stroke-width:1.5;"/><ellipse cx="311.5364" cy="190.9413" fill="#FFFFFF" rx="6" ry="6" style="stroke:#181818;stroke-width:1.5;"/></g><!--link nginx to gogs--><g id="link_nginx_gogs"><path d="M365.823,130.102 C368.931,140.136 372.431,153.136 374,165 C375.807,178.659 374.84,182.248 374,196 C369.77,265.275 368.427,282.907 355,351 C351.187,370.339 344.976,392.077 340.486,406.764 " fill="none" id="nginx-gogs" style="stroke:#181818;stroke-width:1.0;"/><text fill="#000000" font-family="sans-serif" font-size="13" lengthAdjust="spacing" textLength="26" x="381" y="274.5669">http</text><path d="M375.7989,267.7483 A10,10 0 0 0 361.7539 266.0932" fill="none" style="stroke:#181818;stroke-width:1.5;"/><ellipse cx="367.9489" cy="273.9433" fill="#FFFFFF" rx="6" ry="6" style="stroke:#181818;stroke-width:1.5;"/></g><!--link pc to nginx--><g id="link_pc_nginx"><path d="M459.448,112 C437.006,112 419.827,112 399.558,112 " fill="none" id="pc-to-nginx" style="stroke:#181818;stroke-width:1.0;"/><ellipse cx="389.558" cy="112" fill="#FFFFFF" rx="6" ry="6" style="stroke:#181818;stroke-width:1.5;"/><path d="M396.6291,119.0711 A10,10 0 0 0 396.6291 104.9289" fill="#FFFFFF" style="stroke:#181818;stroke-width:1.5;"/><text fill="#000000" font-family="sans-serif" font-size="13" lengthAdjust="spacing" textLength="33" x="408" y="105.0669">https</text></g><!--SRC=[TPAnRiCW54LtlW8nPR6KkMiYHUqGTUmM4OE8cnH87aEbol-UnyMEIL4OpCFt-C13zi5O6NkfIQhDPR0-gJyXHY5y3am9jg4_srlNXvyOo2h9XEG19DBrSa2LoSz0oTqiKORaD8nE-gYfiC3Y0mCqLZuN72s-7QzgbNPyGZ28Sp4h7ePlwy-3hoGVvKNhcKX0KrtR5gLtW_zTXFlT-_whrO42WAhjpTZZeFtYsMAj_dk8JeXvDayIzDsjrbsvoJU-I9vL2UTca8Fa_9HILAzZtg59iVsSbREZBtmuSq_gAc_tnOD_i6mku1JpLOln3W00]--></g></svg>