<?xml version="1.0" encoding="windows-1252" standalone="no"?>
<svg xmlns="http://www.w3.org/2000/svg" xmlns:xlink="http://www.w3.org/1999/xlink" contentStyleType="text/css" height="664px" preserveAspectRatio="none" style="width:710px;height:664px;background:#FFFFFF;" version="1.1" viewBox="0 0 710 664" width="710px" zoomAndPan="magnify"><script xmlns=""/><div xmlns="" id="__jumpCutterBridgeElement"/><defs/><g><!--cluster dc--><g id="cluster_dc"><polygon fill="none" points="16,16,26,6,535,6,535,637,525,647,16,647,16,16" style="stroke:#181818;stroke-width:1.0;"/><line style="stroke:#181818;stroke-width:1.0;" x1="525" x2="535" y1="16" y2="6"/><line style="stroke:#181818;stroke-width:1.0;" x1="16" x2="525" y1="16" y2="16"/><line style="stroke:#181818;stroke-width:1.0;" x1="525" x2="525" y1="16" y2="647"/><text fill="#000000" font-family="sans-serif" font-size="14" font-weight="bold" lengthAdjust="spacing" textLength="133" x="205" y="31.9951">Docker-compose</text></g><!--cluster nginx_node--><g id="cluster_nginx_node"><polygon fill="none" points="279,64,289,54,394,54,394,136,384,146,279,146,279,64" style="stroke:#181818;stroke-width:1.0;"/><line style="stroke:#181818;stroke-width:1.0;" x1="384" x2="394" y1="64" y2="54"/><line style="stroke:#181818;stroke-width:1.0;" x1="279" x2="384" y1="64" y2="64"/><line style="stroke:#181818;stroke-width:1.0;" x1="384" x2="384" y1="64" y2="146"/><text fill="#000000" font-family="sans-serif" font-size="14" font-weight="bold" lengthAdjust="spacing" textLength="39" x="313" y="79.9951">NGIN</text></g><!--cluster gogs_node--><g id="cluster_gogs_node"><polygon fill="none" points="272,377,282,367,389,367,389,449,379,459,272,459,272,377" style="stroke:#181818;stroke-width:1.0;"/><line style="stroke:#181818;stroke-width:1.0;" x1="379" x2="389" y1="377" y2="367"/><line style="stroke:#181818;stroke-width:1.0;" x1="272" x2="379" y1="377" y2="377"/><line style="stroke:#181818;stroke-width:1.0;" x1="379" x2="379" y1="377" y2="459"/><text fill="#000000" font-family="sans-serif" font-size="14" font-weight="bold" lengthAdjust="spacing" textLength="41" x="306" y="392.9951">Gogs</text></g><!--cluster jenkins_node--><g id="cluster_jenkins_node"><polygon fill="none" points="195,222,205,212,328,212,328,294,318,304,195,304,195,222" style="stroke:#181818;stroke-width:1.0;"/><line style="stroke:#181818;stroke-width:1.0;" x1="318" x2="328" y1="222" y2="212"/><line style="stroke:#181818;stroke-width:1.0;" x1="195" x2="318" y1="222" y2="222"/><line style="stroke:#181818;stroke-width:1.0;" x1="318" x2="318" y1="222" y2="304"/><text fill="#000000" font-family="sans-serif" font-size="14" font-weight="bold" lengthAdjust="spacing" textLength="57" x="229" y="237.9951">Jenkins</text></g><!--cluster psql_node--><g id="cluster_psql_node"><polygon fill="none" points="252,532,262,522,409,522,409,613,399,623,252,623,252,532" style="stroke:#181818;stroke-width:1.0;"/><line style="stroke:#181818;stroke-width:1.0;" x1="399" x2="409" y1="532" y2="522"/><line style="stroke:#181818;stroke-width:1.0;" x1="252" x2="399" y1="532" y2="532"/><line style="stroke:#181818;stroke-width:1.0;" x1="399" x2="399" y1="532" y2="623"/><text fill="#000000" font-family="sans-serif" font-size="14" font-weight="bold" lengthAdjust="spacing" textLength="81" x="286" y="547.9951">Postgress</text></g><!--cluster debian_node--><g id="cluster_debian_node"><polygon fill="none" points="40,222,50,212,171,212,171,294,161,304,40,304,40,222" style="stroke:#181818;stroke-width:1.0;"/><line style="stroke:#181818;stroke-width:1.0;" x1="161" x2="171" y1="222" y2="212"/><line style="stroke:#181818;stroke-width:1.0;" x1="40" x2="161" y1="222" y2="222"/><line style="stroke:#181818;stroke-width:1.0;" x1="161" x2="161" y1="222" y2="304"/><text fill="#000000" font-family="sans-serif" font-size="14" font-weight="bold" lengthAdjust="spacing" textLength="55" x="74" y="237.9951">Debian</text></g><!--entity pc--><g id="elem_pc"><polygon fill="#F1F1F1" points="593,99,603,89,693,89,693,125.2969,683,135.2969,593,135.2969,593,99" style="stroke:#181818;stroke-width:0.5;"/><line style="stroke:#181818;stroke-width:0.5;" x1="683" x2="693" y1="99" y2="89"/><line style="stroke:#181818;stroke-width:0.5;" x1="593" x2="683" y1="99" y2="99"/><line style="stroke:#181818;stroke-width:0.5;" x1="683" x2="683" y1="99" y2="135.2969"/><text fill="#000000" font-family="sans-serif" font-size="14" lengthAdjust="spacing" textLength="60" x="608" y="121.9951">External</text></g><!--entity nginx--><g id="elem_nginx"><rect fill="#F1F1F1" height="36.2969" rx="2.5" ry="2.5" style="stroke:#181818;stroke-width:0.5;" width="65" x="303.5" y="94"/><text fill="#000000" font-family="sans-serif" font-size="14" lengthAdjust="spacing" textLength="45" x="313.5" y="116.9951">NGINX</text></g><!--entity gogs--><g id="elem_gogs"><rect fill="#F1F1F1" height="36.2969" rx="2.5" ry="2.5" style="stroke:#181818;stroke-width:0.5;" width="56" x="302" y="407"/><text fill="#000000" font-family="sans-serif" font-size="14" lengthAdjust="spacing" textLength="36" x="312" y="429.9951">Gogs</text></g><!--entity jenkins--><g id="elem_jenkins"><rect fill="#F1F1F1" height="36.2969" rx="2.5" ry="2.5" style="stroke:#181818;stroke-width:0.5;" width="71" x="212.5" y="252"/><text fill="#000000" font-family="sans-serif" font-size="14" lengthAdjust="spacing" textLength="51" x="222.5" y="274.9951">jenkins</text></g><!--entity psql--><g id="elem_psql"><path d="M285,572 C285,562 330,562 330,562 C330,562 375,562 375,572 L375,597.2969 C375,607.2969 330,607.2969 330,607.2969 C330,607.2969 285,607.2969 285,597.2969 L285,572 " fill="#F1F1F1" style="stroke:#181818;stroke-width:0.5;"/><path d="M285,572 C285,582 330,582 330,582 C330,582 375,582 375,572 " fill="none" style="stroke:#181818;stroke-width:0.5;"/><text fill="#000000" font-family="sans-serif" font-size="14" lengthAdjust="spacing" textLength="70" x="295" y="598.9951">Postgress</text></g><!--entity ssh--><g id="elem_ssh"><rect fill="#F1F1F1" height="36.2969" rx="2.5" ry="2.5" style="stroke:#181818;stroke-width:0.5;" width="87" x="66.5" y="252"/><text fill="#000000" font-family="sans-serif" font-size="14" lengthAdjust="spacing" textLength="67" x="76.5" y="274.9951">OpenSSH</text></g><!--link gogs to psql--><g id="link_gogs_psql"><path d="M330,443.155 C330,472.016 330,530.224 330,561.852 " fill="none" id="gogs-psql" style="stroke:#181818;stroke-width:1.0;"/><text fill="#000000" font-family="sans-serif" font-size="13" lengthAdjust="spacing" textLength="26" x="338" y="495.0669">psql</text><path d="M337.0711,494.3948 A10,10 0 0 0 322.9289 494.3948" fill="none" style="stroke:#181818;stroke-width:1.5;"/><ellipse cx="330" cy="501.4659" fill="#FFFFFF" rx="6" ry="6" style="stroke:#181818;stroke-width:1.5;"/></g><!--link jenkins to gogs--><g id="link_jenkins_gogs"><path d="M243.061,288.104 C239.167,304.921 235.776,330.918 245,351 C256.611,376.277 281.773,396.093 301.723,408.662 " fill="none" id="jenkins-gogs" style="stroke:#181818;stroke-width:1.0;"/><text fill="#000000" font-family="sans-serif" font-size="13" lengthAdjust="spacing" textLength="26" x="253" y="340.0669">http</text><path d="M248.4742,341.6229 A10,10 0 0 0 235.6229 347.5258" fill="none" style="stroke:#181818;stroke-width:1.5;"/><ellipse cx="245" cy="351" fill="#FFFFFF" rx="6" ry="6" style="stroke:#181818;stroke-width:1.5;"/></g><!--link jenkins to gogs--><g id="link_jenkins_gogs"><path d="M266.033,288.376 C274.467,297.236 284.139,308.542 291,320 C308.039,348.456 319.787,385.622 325.662,406.948 " fill="none" id="jenkins-gogs-1" style="stroke:#181818;stroke-width:1.0;"/><text fill="#000000" font-family="sans-serif" font-size="13" lengthAdjust="spacing" textLength="22" x="314" y="340.0669">ssh</text><path d="M316.6641,357.048 A10,10 0 0 0 303.4177 362.0012" fill="none" style="stroke:#181818;stroke-width:1.5;"/><ellipse cx="312.5175" cy="366.1478" fill="#FFFFFF" rx="6" ry="6" style="stroke:#181818;stroke-width:1.5;"/></g><!--link jenkins to ssh--><g id="link_jenkins_ssh"><path d="M212.462,270 C194.528,270 182.615,270 163.664,270 " fill="none" id="jenkins-to-ssh" style="stroke:#181818;stroke-width:1.0;"/><ellipse cx="153.664" cy="270" fill="#FFFFFF" rx="6" ry="6" style="stroke:#181818;stroke-width:1.5;"/><path d="M160.7351,277.0711 A10,10 0 0 0 160.7351 262.9289" fill="#FFFFFF" style="stroke:#181818;stroke-width:1.5;"/><text fill="#000000" font-family="sans-serif" font-size="13" lengthAdjust="spacing" textLength="22" x="172" y="263.0669">ssh</text></g><!--link nginx to jenkins--><g id="link_nginx_jenkins"><path d="M303.382,119.346 C278.523,126.078 245.938,139.428 230,165 C213.232,191.903 227.347,229.939 238.263,251.776 " fill="none" id="nginx-jenkins" style="stroke:#181818;stroke-width:1.0;"/><text fill="#000000" font-family="sans-serif" font-size="13" lengthAdjust="spacing" textLength="124" x="238" y="185.0669">http://jenkins:8080/</text><path d="M239.7411,162.7392 A10,10 0 0 0 227.7392 155.2589" fill="none" style="stroke:#181818;stroke-width:1.5;"/><ellipse cx="230" cy="165" fill="#FFFFFF" rx="6" ry="6" style="stroke:#181818;stroke-width:1.5;"/></g><!--link nginx to gogs--><g id="link_nginx_gogs"><path d="M352.855,130.168 C360.938,139.614 369.767,152.032 374,165 C402.803,253.233 358.01,364.852 338.427,406.922 " fill="none" id="nginx-gogs" style="stroke:#181818;stroke-width:1.0;"/><text fill="#000000" font-family="sans-serif" font-size="13" lengthAdjust="spacing" textLength="124" x="391" y="274.5669">http://jenkins:3000/</text><path d="M382.8208,297.9444 A10,10 0 0 0 369.0305 294.8096" fill="none" style="stroke:#181818;stroke-width:1.5;"/><ellipse cx="374.3583" cy="303.2721" fill="#FFFFFF" rx="6" ry="6" style="stroke:#181818;stroke-width:1.5;"/></g><!--link pc to nginx--><g id="link_pc_nginx"><path d="M592.823,112 C529.441,112 432.189,112 378.564,112 " fill="none" id="pc-to-nginx" style="stroke:#181818;stroke-width:1.0;"/><ellipse cx="368.564" cy="112" fill="#FFFFFF" rx="6" ry="6" style="stroke:#181818;stroke-width:1.5;"/><path d="M375.6351,119.0711 A10,10 0 0 0 375.6351 104.9289" fill="#FFFFFF" style="stroke:#181818;stroke-width:1.5;"/><text fill="#000000" font-family="sans-serif" font-size="13" lengthAdjust="spacing" textLength="188" x="386.75" y="105.0669">https://localhost:8443/jenkins</text></g><!--link pc to nginx--><g id="link_pc_nginx"><path d="M592.98,127.467 C585.108,129.347 577.009,130.967 569.25,132 C530.261,137.193 431.011,138.686 392.25,132 C384.385,130.643 385.6229,131.5359 377.9689,128.9129 " fill="none" id="pc-to-nginx-1" style="stroke:#181818;stroke-width:1.0;"/><ellipse cx="368.509" cy="125.671" fill="#FFFFFF" rx="6" ry="6" style="stroke:#181818;stroke-width:1.5;"/><path d="M372.9058,134.6525 A10,10 0 0 0 377.4905 121.2742" fill="#FFFFFF" style="stroke:#181818;stroke-width:1.5;"/><text fill="#000000" font-family="sans-serif" font-size="13" lengthAdjust="spacing" textLength="175" x="393.25" y="128.0669">https://localhost:8443/gogs</text></g><!--SRC=[ZPAxRiCW64PtdW8nTR6Cb0oMvrHfEoILidIhY8sm6nSSmn0fyhiNVg0uM9NAO2xdy046gLgEnmOpZSdppV19ie7S4PeHaWwr7krKS-5JqQZlKMbEy1rXMy2GefUtJsWwyx1_FKJk2XDS6Y_zyWy2U4uXGWcTClQsjyvmJi9vmXUNbrukGjxym3edc225zYfjrDSXHRqhRSJ4zKDOommxC-tTJClZMdxkcKo1E-YJV6TQTu2F8vUdqqkCWGfENppHmgzNO-9guc4y4d0mBU-C6SdVs2wseh23oFpsuU9WOlH2T5sMOQIkQ4LBallBVIpa3QLHXezzV6vbFp7eslg3QjZGsLzQLzljfdougN_E4V1GqFm3]--></g></svg>