<?xml version="1.0" encoding="windows-1252" standalone="no"?>
<svg xmlns="http://www.w3.org/2000/svg" xmlns:xlink="http://www.w3.org/1999/xlink" contentStyleType="text/css" height="664px" preserveAspectRatio="none" style="width:692px;height:664px;background:#FFFFFF;" version="1.1" viewBox="0 0 692 664" width="692px" zoomAndPan="magnify"><script xmlns=""/><div xmlns="" id="__jumpCutterBridgeElement"/><defs/><g><!--cluster dc--><g id="cluster_dc"><polygon fill="none" points="16,16,26,6,535,6,535,637,525,647,16,647,16,16" style="stroke:#181818;stroke-width:1.0;"/><line style="stroke:#181818;stroke-width:1.0;" x1="525" x2="535" y1="16" y2="6"/><line style="stroke:#181818;stroke-width:1.0;" x1="16" x2="525" y1="16" y2="16"/><line style="stroke:#181818;stroke-width:1.0;" x1="525" x2="525" y1="16" y2="647"/><text fill="#000000" font-family="sans-serif" font-size="14" font-weight="bold" lengthAdjust="spacing" textLength="133" x="205" y="31.9951">Docker-compose</text></g><!--cluster psql_node--><g id="cluster_psql_node"><polygon fill="none" points="252,532,262,522,409,522,409,613,399,623,252,623,252,532" style="stroke:#181818;stroke-width:1.0;"/><line style="stroke:#181818;stroke-width:1.0;" x1="399" x2="409" y1="532" y2="522"/><line style="stroke:#181818;stroke-width:1.0;" x1="252" x2="399" y1="532" y2="532"/><line style="stroke:#181818;stroke-width:1.0;" x1="399" x2="399" y1="532" y2="623"/><text fill="#000000" font-family="sans-serif" font-size="14" font-weight="bold" lengthAdjust="spacing" textLength="81" x="286" y="547.9951">Postgress</text></g><!--cluster gogs_node--><g id="cluster_gogs_node"><polygon fill="none" points="272,377,282,367,389,367,389,449,379,459,272,459,272,377" style="stroke:#181818;stroke-width:1.0;"/><line style="stroke:#181818;stroke-width:1.0;" x1="379" x2="389" y1="377" y2="367"/><line style="stroke:#181818;stroke-width:1.0;" x1="272" x2="379" y1="377" y2="377"/><line style="stroke:#181818;stroke-width:1.0;" x1="379" x2="379" y1="377" y2="459"/><text fill="#000000" font-family="sans-serif" font-size="14" font-weight="bold" lengthAdjust="spacing" textLength="41" x="306" y="392.9951">Gogs</text></g><!--cluster jenkins_node--><g id="cluster_jenkins_node"><polygon fill="none" points="195,222,205,212,328,212,328,294,318,304,195,304,195,222" style="stroke:#181818;stroke-width:1.0;"/><line style="stroke:#181818;stroke-width:1.0;" x1="318" x2="328" y1="222" y2="212"/><line style="stroke:#181818;stroke-width:1.0;" x1="195" x2="318" y1="222" y2="222"/><line style="stroke:#181818;stroke-width:1.0;" x1="318" x2="318" y1="222" y2="304"/><text fill="#000000" font-family="sans-serif" font-size="14" font-weight="bold" lengthAdjust="spacing" textLength="57" x="229" y="237.9951">Jenkins</text></g><!--cluster nginx_node--><g id="cluster_nginx_node"><polygon fill="none" points="275,64,285,54,401,54,401,136,391,146,275,146,275,64" style="stroke:#181818;stroke-width:1.0;"/><line style="stroke:#181818;stroke-width:1.0;" x1="391" x2="401" y1="64" y2="54"/><line style="stroke:#181818;stroke-width:1.0;" x1="275" x2="391" y1="64" y2="64"/><line style="stroke:#181818;stroke-width:1.0;" x1="391" x2="391" y1="64" y2="146"/><text fill="#000000" font-family="sans-serif" font-size="14" font-weight="bold" lengthAdjust="spacing" textLength="50" x="309" y="79.9951">NGINX</text></g><!--cluster debian_node--><g id="cluster_debian_node"><polygon fill="none" points="40,222,50,212,171,212,171,294,161,304,40,304,40,222" style="stroke:#181818;stroke-width:1.0;"/><line style="stroke:#181818;stroke-width:1.0;" x1="161" x2="171" y1="222" y2="212"/><line style="stroke:#181818;stroke-width:1.0;" x1="40" x2="161" y1="222" y2="222"/><line style="stroke:#181818;stroke-width:1.0;" x1="161" x2="161" y1="222" y2="304"/><text fill="#000000" font-family="sans-serif" font-size="14" font-weight="bold" lengthAdjust="spacing" textLength="55" x="74" y="237.9951">Debian</text></g><!--entity pc--><g id="elem_pc"><polygon fill="#F1F1F1" points="592.5,99,602.5,89,675.5,89,675.5,125.2969,665.5,135.2969,592.5,135.2969,592.5,99" style="stroke:#181818;stroke-width:0.5;"/><line style="stroke:#181818;stroke-width:0.5;" x1="665.5" x2="675.5" y1="99" y2="89"/><line style="stroke:#181818;stroke-width:0.5;" x1="592.5" x2="665.5" y1="99" y2="99"/><line style="stroke:#181818;stroke-width:0.5;" x1="665.5" x2="665.5" y1="99" y2="135.2969"/><text fill="#000000" font-family="sans-serif" font-size="14" lengthAdjust="spacing" textLength="43" x="607.5" y="121.9951">Client</text></g><!--entity psql--><g id="elem_psql"><path d="M284.5,572 C284.5,562 330,562 330,562 C330,562 375.5,562 375.5,572 L375.5,597.2969 C375.5,607.2969 330,607.2969 330,607.2969 C330,607.2969 284.5,607.2969 284.5,597.2969 L284.5,572 " fill="#F1F1F1" style="stroke:#181818;stroke-width:0.5;"/><path d="M284.5,572 C284.5,582 330,582 330,582 C330,582 375.5,582 375.5,572 " fill="none" style="stroke:#181818;stroke-width:0.5;"/><text fill="#000000" font-family="sans-serif" font-size="14" lengthAdjust="spacing" textLength="71" x="294.5" y="598.9951">postgress</text></g><!--entity gogs--><g id="elem_gogs"><rect fill="#F1F1F1" height="36.2969" rx="2.5" ry="2.5" style="stroke:#181818;stroke-width:0.5;" width="54" x="303" y="407"/><text fill="#000000" font-family="sans-serif" font-size="14" lengthAdjust="spacing" textLength="34" x="313" y="429.9951">gogs</text></g><!--entity jenkins--><g id="elem_jenkins"><rect fill="#F1F1F1" height="36.2969" rx="2.5" ry="2.5" style="stroke:#181818;stroke-width:0.5;" width="71" x="212.5" y="252"/><text fill="#000000" font-family="sans-serif" font-size="14" lengthAdjust="spacing" textLength="51" x="222.5" y="274.9951">jenkins</text></g><!--entity nginx--><g id="elem_nginx"><rect fill="#F1F1F1" height="36.2969" rx="2.5" ry="2.5" style="stroke:#181818;stroke-width:0.5;" width="59" x="308.5" y="94"/><text fill="#000000" font-family="sans-serif" font-size="14" lengthAdjust="spacing" textLength="39" x="318.5" y="116.9951">nginx</text></g><!--entity ssh--><g id="elem_ssh"><rect fill="#F1F1F1" height="36.2969" rx="2.5" ry="2.5" style="stroke:#181818;stroke-width:0.5;" width="52" x="102" y="252"/><text fill="#000000" font-family="sans-serif" font-size="14" lengthAdjust="spacing" textLength="32" x="112" y="274.9951">sshd</text></g><!--link gogs to psql--><g id="link_gogs_psql"><path d="M330,443.155 C330,472.016 330,530.224 330,561.852 " fill="none" id="gogs-psql" style="stroke:#181818;stroke-width:1.0;"/><text fill="#000000" font-family="sans-serif" font-size="13" lengthAdjust="spacing" textLength="26" x="338" y="495.0669">psql</text><path d="M337.0711,494.3948 A10,10 0 0 0 322.9289 494.3948" fill="none" style="stroke:#181818;stroke-width:1.5;"/><ellipse cx="330" cy="501.4659" fill="#FFFFFF" rx="6" ry="6" style="stroke:#181818;stroke-width:1.5;"/></g><!--link jenkins to gogs--><g id="link_jenkins_gogs"><path d="M243.061,288.104 C239.167,304.921 235.776,330.918 245,351 C256.855,376.808 282.834,396.922 302.972,409.443 " fill="none" id="jenkins-gogs" style="stroke:#181818;stroke-width:1.0;"/><text fill="#000000" font-family="sans-serif" font-size="13" lengthAdjust="spacing" textLength="26" x="253" y="340.0669">http</text><path d="M248.4742,341.6229 A10,10 0 0 0 235.6229 347.5258" fill="none" style="stroke:#181818;stroke-width:1.5;"/><ellipse cx="245" cy="351" fill="#FFFFFF" rx="6" ry="6" style="stroke:#181818;stroke-width:1.5;"/></g><!--link jenkins to gogs--><g id="link_jenkins_gogs"><path d="M266.033,288.376 C274.467,297.236 284.139,308.542 291,320 C308.039,348.456 319.787,385.622 325.662,406.948 " fill="none" id="jenkins-gogs-1" style="stroke:#181818;stroke-width:1.0;"/><text fill="#000000" font-family="sans-serif" font-size="13" lengthAdjust="spacing" textLength="22" x="314" y="340.0669">ssh</text><path d="M316.6641,357.048 A10,10 0 0 0 303.4177 362.0012" fill="none" style="stroke:#181818;stroke-width:1.5;"/><ellipse cx="312.5175" cy="366.1478" fill="#FFFFFF" rx="6" ry="6" style="stroke:#181818;stroke-width:1.5;"/></g><!--link jenkins to ssh--><g id="link_jenkins_ssh"><path d="M212.453,270 C193.713,270 181.133,270 164.038,270 " fill="none" id="jenkins-to-ssh" style="stroke:#181818;stroke-width:1.0;"/><ellipse cx="154.038" cy="270" fill="#FFFFFF" rx="6" ry="6" style="stroke:#181818;stroke-width:1.5;"/><path d="M161.1091,277.0711 A10,10 0 0 0 161.1091 262.9289" fill="#FFFFFF" style="stroke:#181818;stroke-width:1.5;"/><text fill="#000000" font-family="sans-serif" font-size="13" lengthAdjust="spacing" textLength="22" x="172.25" y="263.0669">ssh</text></g><!--link nginx to jenkins--><g id="link_nginx_jenkins"><path d="M308.348,118.264 C282.671,124.559 247.051,137.865 230,165 C213.133,191.841 227.283,229.899 238.232,251.757 " fill="none" id="nginx-jenkins" style="stroke:#181818;stroke-width:1.0;"/><text fill="#000000" font-family="sans-serif" font-size="13" lengthAdjust="spacing" textLength="124" x="238" y="185.0669">http://jenkins:8080/</text><path d="M239.7493,162.775 A10,10 0 0 0 227.775 155.2507" fill="none" style="stroke:#181818;stroke-width:1.5;"/><ellipse cx="230" cy="165" fill="#FFFFFF" rx="6" ry="6" style="stroke:#181818;stroke-width:1.5;"/></g><!--link nginx to gogs--><g id="link_nginx_gogs"><path d="M353.982,130.317 C361.643,139.804 370.006,152.214 374,165 C378.108,178.151 374.97,182.256 374,196 C369.099,265.407 366.971,283.05 352,351 C347.728,370.39 340.909,392.12 335.995,406.791 " fill="none" id="nginx-gogs" style="stroke:#181818;stroke-width:1.0;"/><text fill="#000000" font-family="sans-serif" font-size="13" lengthAdjust="spacing" textLength="124" x="381" y="274.5669">http://jenkins:3000/</text><path d="M374.758,268.0221 A10,10 0 0 0 360.752 266.0647" fill="none" style="stroke:#181818;stroke-width:1.5;"/><ellipse cx="366.7763" cy="274.0464" fill="#FFFFFF" rx="6" ry="6" style="stroke:#181818;stroke-width:1.5;"/></g><!--link pc to nginx--><g id="link_pc_nginx"><path d="M592.495,112 C531.936,112 430.808,112 377.737,112 " fill="none" id="pc-to-nginx" style="stroke:#181818;stroke-width:1.0;"/><ellipse cx="367.737" cy="112" fill="#FFFFFF" rx="6" ry="6" style="stroke:#181818;stroke-width:1.5;"/><path d="M374.8081,119.0711 A10,10 0 0 0 374.8081 104.9289" fill="#FFFFFF" style="stroke:#181818;stroke-width:1.5;"/><text fill="#000000" font-family="sans-serif" font-size="13" lengthAdjust="spacing" textLength="188" x="386" y="105.0669">https://localhost:8443/jenkins</text></g><!--link pc to nginx--><g id="link_pc_nginx"><path d="M592.495,126.684 C584.62,128.894 576.379,130.824 568.5,132 C529.598,137.807 430.206,138.998 391.5,132 C383.596,130.571 384.7262,131.4881 377.1292,128.7011 " fill="none" id="pc-to-nginx-1" style="stroke:#181818;stroke-width:1.0;"/><ellipse cx="367.741" cy="125.257" fill="#FFFFFF" rx="6" ry="6" style="stroke:#181818;stroke-width:1.5;"/><path d="M371.9441,134.3308 A10,10 0 0 0 376.8148 121.0539" fill="#FFFFFF" style="stroke:#181818;stroke-width:1.5;"/><text fill="#000000" font-family="sans-serif" font-size="13" lengthAdjust="spacing" textLength="175" x="392.5" y="128.0669">https://localhost:8443/gogs</text></g><!--SRC=[ZPAxRiCW58PtFmLYwcBPKZ9ONXifQeSeOxQA68JTE41p62fLVlSU3ZWciIgLmLp-Zu-BCLOgvZecWF7NSL36yv-Yc8h2X436O6UxYxgLdRqw2uep91WMGXnyZH_K2kJHWjSt1H0WbeeKNfm5H9OmTyS8cZAVjXeMtnvxkKfet24n58V6hBWRFfMv32QJlCU1jIUH1ALsRbkKHW_cUn4Uzc-7qrf7507KMfzDglCWpEBPKPy_Um1wYh6M3n8wT_bIb_4cMxn8h7aCvyDGJYJclVUE_ntZ2gkKbf-pk7Sw5qsSkQHkgogDj4tTr1L_vlDzPF2chcUOFlW0myfnOi81-T5sOkpniRJDThkf7lxHF-V49r9Clm00]--></g></svg>